HIERARCHY
ROOT Hips
{
  OFFSET 135.063 87.1344 73.9012
  CHANNELS 6 Xposition Yposition Zposition Zrotation Xrotation Yrotation
  JOINT RightUpLeg
  {
    OFFSET -8.9458 -8.66707 0.101652
    CHANNELS 3 Zrotation Xrotation Yrotation
    JOINT RightLeg
    {
      OFFSET 0 -44.4227 1.3727
      CHANNELS 3 Zrotation Xrotation Yrotation
      JOINT RightFoot
      {
        OFFSET 0.253549 -42.0924 -1.46059
        CHANNELS 3 Zrotation Xrotation Yrotation
        JOINT RightToes
        {
          OFFSET 0.04 -4.41509 8.4991
          CHANNELS 3 Zrotation Xrotation Yrotation
          End Site
          {
            OFFSET -0.08 -0.137448 9.77979
          }
        }
      }
    }
  }
  JOINT Spine
  {
    OFFSET 0 11.8905 0
    CHANNELS 3 Zrotation Xrotation Yrotation
    JOINT Spine1
    {
      OFFSET 0 25.6574 0.127663
      CHANNELS 3 Zrotation Xrotation Yrotation
      JOINT HEad
      {
        OFFSET 0 8.73416 0.011341
        CHANNELS 3 Zrotation Xrotation Yrotation
        End Site
        {
          OFFSET -0.29 12.7742 2.51395
        }
      }
      JOINT LeftShoulder1
      {
        OFFSET 8.99 -0.362252 -0.22
        CHANNELS 3 Zrotation Xrotation Yrotation
        JOINT LeftArm
        {
          OFFSET 10.2827 -0.00338 0.322123
          CHANNELS 3 Zrotation Xrotation Yrotation
          JOINT LeftForeArm
          {
            OFFSET 32.7669 0.099144 -1.42434
            CHANNELS 3 Zrotation Xrotation Yrotation
            JOINT LeftHand
            {
              OFFSET 27.5643 0.085362 1.02216
              CHANNELS 3 Zrotation Xrotation Yrotation
              End Site
              {
                OFFSET 16.7443 -0.6 1.50291
              }
            }
          }
        }
      }
      JOINT RightShoulder
      {
        OFFSET -8.99 -0.362252 -0.22
        CHANNELS 3 Zrotation Xrotation Yrotation
        JOINT RightArm
        {
          OFFSET -10.2827 -0.00338 0.322123
          CHANNELS 3 Zrotation Xrotation Yrotation
          JOINT RightForeArm
          {
            OFFSET -32.8971 0.099144 -1.42434
            CHANNELS 3 Zrotation Xrotation Yrotation
            JOINT RightHand
            {
              OFFSET -27.4921 0.085362 1.02216
              CHANNELS 3 Zrotation Xrotation Yrotation
              End Site
              {
                OFFSET -16.6312 -0.6 1.50291
              }
            }
          }
        }
      }
    }
  }
  JOINT LeftUpLeg
  {
    OFFSET 8.9458 -8.66707 0.101652
    CHANNELS 3 Zrotation Xrotation Yrotation
    JOINT LeftLeg
    {
      OFFSET 0 -44.4227 1.3727
      CHANNELS 3 Zrotation Xrotation Yrotation
      JOINT LeftFoot
      {
        OFFSET -0.253549 -42.0924 -1.46059
        CHANNELS 3 Zrotation Xrotation Yrotation
        JOINT LeftToes
        {
          OFFSET -0.04 -4.41509 8.4991
          CHANNELS 3 Zrotation Xrotation Yrotation
          End Site
          {
            OFFSET 0.08 -0.047448 9.77979
          }
        }
      }
    }
  }
}
MOTION
Frames:	9
Frame Time:	0.0166667
0	103.824	0	1.87799	2.87975	162.495	1.27708	0.539521	1.19307	2.2427	11.2772	-17.7528	2.55246	-7.77145	0.110106	0.0462048	0.000533964	0.662642	-0.144368	-2.68036	-1.02753	-0.337448	-5.35491	-2.06545	1.0557	10.7762	23.6542	1.77E-31	3.18E-15	-3.18E-15	-1.61827	-10.03	-7.34778	1.5727	10.5634	-4.06159	3.04509	9.79746	4.83039	1.77E-31	3.18E-15	-3.18E-15	6.8254	-7.80394	-1.99286	-0.282774	18.1437	3.68866	-2.0758	11.3063	-3.295	-3.09619	2.07826	9.38407	4.02054	11.4815	-4.5936	-7.13686	-14.6499	-1.52936	1.47E-14	3.18E-14	4.77E-15
0.0224	103.824	0	1.89051	2.86312	162.483	1.30756	0.533272	1.18584	2.24332	11.271	-17.7433	2.54125	-7.77046	0.11626	0.0462048	0.000533964	0.662642	-0.144599	-2.67928	-1.03022	-0.338017	-5.35274	-2.07084	1.14781	10.8064	23.5236	0.00E+00	0.00E+00	6.36E-15	-1.57349	-10.0244	-7.33582	1.53243	10.6333	-4.05603	2.93101	9.82106	4.83614	0.00E+00	0.00E+00	6.36E-15	6.80697	-7.82668	-2.04643	-0.268046	18.1694	3.66085	-2.12946	11.2807	-3.31126	-3.06972	2.08435	9.31239	3.99589	11.4648	-4.52282	-7.12333	-14.6395	-1.52548	1.56E-14	3.10E-14	6.36E-15
0.0492	103.822	0.005	1.90365	2.83938	162.469	1.34913	0.510856	1.17062	2.242	11.2774	-17.7235	2.52778	-7.7695	0.11763	0.0462048	0.000533964	0.662642	-0.144586	-2.67925	-1.03088	-0.33806	-5.35193	-2.07662	1.23919	10.8288	23.4212	-7.95E-16	-1.59E-15	0.00E+00	-1.54948	-9.98928	-7.3401	1.50188	10.7274	-4.02889	2.8603	9.82277	4.8703	-7.95E-16	-1.59E-15	0.00E+00	6.76427	-7.84314	-2.09276	-0.215419	18.1989	3.61557	-2.11157	11.2921	-3.32204	-3.03202	2.08631	9.23709	3.96493	11.455	-4.45743	-7.11629	-14.6402	-1.52033	1.76E-14	3.10E-14	3.18E-15
0.0768	103.821	0.012	1.91628	2.8235	162.449	1.38428	0.4943	1.16353	2.24146	11.2849	-17.7131	2.51748	-7.76843	0.122253	0.0462048	0.000533964	0.662642	-0.144451	-2.6787	-1.03095	-0.33757	-5.35186	-2.08151	1.32563	10.8554	23.3348	-1.77E-31	3.18E-15	3.18E-15	-1.54712	-9.9491	-7.35166	1.49988	10.7464	-3.98946	2.8899	9.82438	4.90719	-1.77E-31	3.18E-15	3.18E-15	6.71183	-7.84176	-2.11162	-0.157042	18.2007	3.53139	-2.03248	11.3253	-3.32915	-2.98198	2.08625	9.19011	3.9225	11.449	-4.40532	-7.11267	-14.6454	-1.52378	1.36E-14	3.10E-14	0.00E+00
0.1042	103.819	0.02	1.92569	2.80549	162.414	1.41499	0.473013	1.18637	2.24377	11.293	-17.7186	2.50803	-7.76816	0.126754	0.0462048	0.000533964	0.662642	-0.144272	-2.67823	-1.03051	-0.336822	-5.35191	-2.08212	1.39143	10.8966	23.2717	7.95E-16	0.00E+00	6.36E-15	-1.5355	-9.94132	-7.34847	1.4899	10.6845	-3.94923	2.96543	9.80974	4.9225	7.95E-16	0.00E+00	6.36E-15	6.64979	-7.82082	-2.11779	-0.106489	18.17	3.44115	-1.98009	11.3709	-3.34728	-2.93198	2.0848	9.19314	3.87955	11.4461	-4.37447	-7.11035	-14.6496	-1.53201	1.36E-14	3.14E-14	4.77E-15
0.1282	103.817	0.029	1.93207	2.80069	162.373	1.43215	0.46267	1.19281	2.2417	11.3023	-17.7014	2.497	-7.76956	0.128827	0.0462048	0.000533964	0.662642	-0.144116	-2.67777	-1.02963	-0.336593	-5.35144	-2.08042	1.46306	10.9393	23.2111	7.95E-16	-1.59E-15	-9.54E-15	-1.49256	-9.98322	-7.33958	1.48045	10.5865	-3.93135	2.9623	9.81241	4.91619	7.95E-16	-1.59E-15	-9.54E-15	6.59179	-7.78086	-2.12964	-0.0591602	18.1256	3.35459	-1.99038	11.3637	-3.38286	-2.89421	2.08299	9.19768	3.84442	11.4546	-4.33738	-7.10979	-14.6506	-1.53624	1.45E-14	3.14E-14	3.18E-15
0.1508	103.816	0.033	1.93448	2.79846	162.335	1.4451	0.463395	1.17056	2.23327	11.3035	-17.6615	2.48658	-7.77484	0.129884	0.0462048	0.000533964	0.662642	-0.144048	-2.67721	-1.02841	-0.337445	-5.3498	-2.07607	1.52119	10.9787	23.1604	0.00E+00	1.59E-15	0.00E+00	-1.47485	-10.0498	-7.34034	1.48507	10.5227	-3.91402	2.92913	9.83051	4.9243	0.00E+00	1.59E-15	0.00E+00	6.53729	-7.74081	-2.14629	-0.0283253	18.0932	3.28727	-2.01279	11.3495	-3.40808	-2.86431	2.08174	9.17623	3.81243	11.4688	-4.29532	-7.10766	-14.6507	-1.52908	1.31E-14	3.26E-14	4.77E-15
0.1761	103.815	0.03	1.93701	2.79731	162.302	1.46291	0.471628	1.15521	2.22783	11.2973	-17.6375	2.47865	-7.78355	0.130348	0.0462048	0.000533964	0.662642	-0.144137	-2.67648	-1.02691	-0.341109	-5.3455	-2.0676	1.56541	11.0147	23.1132	-1.59E-15	1.59E-15	-3.18E-15	-1.47013	-10.0973	-7.37507	1.48539	10.5202	-3.88544	2.91303	9.82669	4.95846	-1.59E-15	1.59E-15	-3.18E-15	6.45663	-7.70819	-2.18788	0.0125601	18.0759	3.2452	-2.02723	11.3616	-3.42001	-2.83584	2.08182	9.12479	3.77852	11.4832	-4.2442	-7.10384	-14.6511	-1.51598	1.47E-14	3.22E-14	1.59E-15
0.1994	103.814	0.027	1.93995	2.7972	162.27	1.47866	0.481982	1.15628	2.22365	11.2933	-17.6229	2.47303	-7.79328	0.130639	0.0462048	0.000533964	0.662642	-0.144385	-2.67548	-1.02521	-0.345451	-5.3433	-2.06096	1.61093	11.0536	23.0704	7.95E-16	4.77E-15	6.36E-15	-1.44494	-10.0969	-7.41515	1.4676	10.5223	-3.86704	2.92399	9.82046	4.97029	7.95E-16	4.77E-15	6.36E-15	6.36897	-7.6698	-2.23482	0.056969	18.0411	3.20141	-2.04982	11.3681	-3.42838	-2.82251	2.08399	9.04222	3.75679	11.4977	-4.17683	-7.0974	-14.6525	-1.49936	1.54E-14	3.18E-14	3.18E-15
